<svg width="812" height="248" viewBox="0 0 812 248" fill="none" xmlns="http://www.w3.org/2000/svg">
<path d="M108.234 3.18652C166.176 3.9202 212.921 51.1185 212.921 109.234L212.912 110.604C212.179 168.546 164.98 215.291 106.864 215.291L105.493 215.282C90.9686 215.098 77.1483 211.993 64.5909 206.529V239.717C64.5909 244.135 61.0092 247.717 56.5909 247.717H8.80774C4.38946 247.717 0.807739 244.135 0.807739 239.717V115.751C0.80774 115.276 0.850292 114.81 0.92981 114.357C0.870576 113.112 0.832436 111.861 0.816528 110.604L0.807739 109.234C0.807816 50.6611 48.2911 3.17776 106.864 3.17773L108.234 3.18652ZM380.516 29.4941C396.271 29.4941 410.314 32.4916 422.644 38.4854C435.145 44.3079 445.25 52.6135 452.956 63.4023C459.125 71.851 463.666 81.4027 466.579 92.0566C467.863 96.7515 464.155 101.163 459.288 101.163H413.537C410.478 101.163 407.771 99.3305 406.126 96.751C403.639 92.8497 400.496 89.6967 396.699 87.292C391.733 83.867 385.996 82.1543 379.488 82.1543C369.898 82.1543 362.277 85.7508 356.626 92.9434C351.146 100.136 348.406 109.812 348.406 121.971C348.406 134.13 351.146 143.805 356.626 150.998C362.277 158.191 369.898 161.787 379.488 161.787C385.996 161.787 391.733 160.16 396.699 156.906C400.5 154.372 403.645 151.135 406.134 147.195C407.768 144.609 410.478 142.778 413.537 142.777H459.288C464.156 142.777 467.863 147.19 466.579 151.885C463.666 162.539 459.125 172.09 452.956 180.539C445.25 191.328 435.145 199.719 422.644 205.713C410.314 211.535 396.271 214.446 380.516 214.446C362.192 214.446 346.265 210.593 332.736 202.887C319.208 195.009 308.761 184.049 301.398 170.007C294.205 155.964 290.609 139.952 290.609 121.971C290.609 103.989 294.205 87.9772 301.398 73.9346C308.761 59.8919 319.208 49.0169 332.736 41.3105C346.265 33.433 362.192 29.4942 380.516 29.4941ZM254.32 68.2832C270.068 68.2832 282.834 81.0493 282.834 96.7969V206.264C282.834 210.074 279.746 213.162 275.936 213.162H232.706C228.896 213.162 225.808 210.074 225.808 206.264V96.7969C225.808 81.0494 238.573 68.2834 254.32 68.2832ZM525.523 31.293C529.84 31.293 533.341 34.7929 533.341 39.1104V107.843L583.159 34.709C584.615 32.5717 587.034 31.293 589.62 31.293H634.704C641.076 31.293 644.771 38.5056 641.049 43.6768L587.285 118.374L645.393 200.842C649.042 206.021 645.337 213.162 639.002 213.162H590.426C587.821 213.162 585.386 211.864 583.935 209.701L533.341 134.301V205.345C533.341 209.662 529.84 213.162 525.523 213.162H484.131C479.814 213.162 476.314 209.662 476.314 205.345V39.1104C476.314 34.7929 479.814 31.293 484.131 31.293H525.523ZM742.152 31.293C756.88 31.293 769.467 33.9471 779.913 39.2559C790.36 44.3934 798.152 51.5008 803.289 60.5771C808.598 69.4822 811.252 79.5862 811.252 90.8887C811.252 103.047 807.828 113.836 800.978 123.255C794.299 132.674 784.623 139.439 771.95 143.549L804.872 201.482C807.834 206.694 804.069 213.162 798.075 213.162H753.562C750.654 213.162 747.986 211.548 746.637 208.972L714.666 147.915H714.409V205.345C714.409 209.662 710.909 213.162 706.592 213.162H665.2C660.883 213.162 657.382 209.662 657.382 205.345V70.3799C657.382 48.7927 674.883 31.293 696.47 31.293H742.152ZM106.864 80.1777C90.817 80.1778 77.8078 93.187 77.8077 109.234C77.8078 125.282 90.817 138.291 106.864 138.291C122.912 138.291 135.921 125.282 135.921 109.234C135.921 93.1871 122.912 80.1778 106.864 80.1777ZM722.227 79.0723C717.909 79.0723 714.409 82.5722 714.409 86.8896V102.08C714.409 106.397 717.909 109.897 722.227 109.897H737.015C742.495 109.897 746.605 108.698 749.345 106.301C752.085 103.732 753.455 99.7931 753.455 94.4844C753.455 89.6895 751.999 85.9216 749.088 83.1816C746.348 80.4417 742.323 79.0723 737.015 79.0723H722.227ZM254.577 0.210938C264.339 0.210938 272.216 2.95067 278.21 8.43066C284.204 13.7394 287.201 20.5037 287.201 28.7236C287.201 36.7725 284.204 43.4519 278.21 48.7607C272.216 54.0694 264.338 56.7236 254.577 56.7236C244.645 56.7236 236.681 54.0695 230.688 48.7607C224.694 43.4519 221.697 36.7725 221.697 28.7236C221.697 20.5038 224.694 13.7394 230.688 8.43066C236.681 2.95066 244.645 0.211002 254.577 0.210938Z" fill="white"/>
</svg>
